<?xml version="1.0" encoding="UTF-8" standalone="no"?>
<!-- Created with Inkscape (http://www.inkscape.org/) -->

<svg
   xmlns:dc="http://purl.org/dc/elements/1.1/"
   xmlns:cc="http://creativecommons.org/ns#"
   xmlns:rdf="http://www.w3.org/1999/02/22-rdf-syntax-ns#"
   xmlns:svg="http://www.w3.org/2000/svg"
   xmlns="http://www.w3.org/2000/svg"
   xmlns:sodipodi="http://sodipodi.sourceforge.net/DTD/sodipodi-0.dtd"
   xmlns:inkscape="http://www.inkscape.org/namespaces/inkscape"
   width="53.700001cm"
   height="30cm"
   viewBox="0 0 1902.756 1062.9921"
   id="svg2"
   version="1.1"
   inkscape:version="0.91 r13725"
   sodipodi:docname="logo.svg">
  <defs
     id="defs4" />
  <sodipodi:namedview
     id="base"
     pagecolor="#ffffff"
     bordercolor="#666666"
     borderopacity="1.0"
     inkscape:pageopacity="0.0"
     inkscape:pageshadow="2"
     inkscape:zoom="0.35274181"
     inkscape:cx="1667.1144"
     inkscape:cy="453.1091"
     inkscape:document-units="px"
     inkscape:current-layer="layer1"
     showgrid="false"
     inkscape:window-width="1366"
     inkscape:window-height="724"
     inkscape:window-x="0"
     inkscape:window-y="20"
     inkscape:window-maximized="1"
     fit-margin-right="-2.7755576e-17"
     width="298mm"
     units="cm"
     showguides="true"
     inkscape:guide-bbox="true">
    <sodipodi:guide
       position="1023.4114,-93.552848"
       orientation="0,1"
       id="guide6302" />
  </sodipodi:namedview>
  <metadata
     id="metadata7">
    <rdf:RDF>
      <cc:Work
         rdf:about="">
        <dc:format>image/svg+xml</dc:format>
        <dc:type
           rdf:resource="http://purl.org/dc/dcmitype/StillImage" />
        <dc:title />
      </cc:Work>
    </rdf:RDF>
  </metadata>
  <g
     inkscape:label="Capa 1"
     inkscape:groupmode="layer"
     id="layer1"
     transform="translate(0,10.62992)">
    <rect
       inkscape:export-ydpi="90"
       inkscape:export-xdpi="90"
       y="70.863991"
       x="861.25922"
       height="953.86224"
       width="720.20422"
       id="rect6776"
       style="opacity:1;fill:#ffffff;fill-opacity:1;stroke:none;stroke-width:3.42728043" />
    <rect
       style="opacity:1;fill:#ffffff;fill-opacity:1;stroke:none;stroke-width:3.42728043"
       id="rect6774"
       width="720.20422"
       height="953.86224"
       x="44.797997"
       y="53.854385"
       inkscape:export-xdpi="90"
       inkscape:export-ydpi="90" />
    <g
       id="g6659"
       transform="matrix(4.0452252,0,0,4.0452252,-523.46337,-1249.2578)"
       inkscape:export-xdpi="90"
       inkscape:export-ydpi="90">
      <path
         sodipodi:nodetypes="cscsccscsccccscc"
         inkscape:connector-curvature="0"
         id="path6287"
         d="m 478.47268,512.3336 c -2.19371,-1.43883 -11.63483,7.42386 2.41524,6.57645 6.18068,-0.37279 4.66422,1.22315 1.97658,6.33849 4.2598,2.55588 -0.33054,7.84636 -9.82588,4.13414 -8.55116,-3.34309 -7.97963,-1.01145 -12.24361,-8.08397 -1.16824,-1.8466 -2.98861,-3.69027 5.6891,-9.47525 0.26145,-4.91565 2.69996,-9.98885 -0.78357,-11.55142 -4.34629,-1.94957 -5.58872,-6.85176 2.63858,-3.7904 5.46476,-3.54797 7.38308,-13.67706 11.9176,-0.41464 1.40698,4.11509 7.60069,-0.92718 5.03448,-4.56779 1.07469,2.82962 2.73935,-8.09779 7.38674,-2.96733 1.56378,1.9484 7.16468,4.70391 15.90991,1.01016 6.99406,5.35668 3.02307,6.84503 0.1894,8.27062 2.76151,8.67548 -5.16679,3.9133 -8.8468,2.77053 -5.31381,-1.65012 -6.57164,6.64932 1.04084,3.14358 6.05031,2.90258 -8.84581,11.77236 -22.49861,8.60683 z"
         style="fill:#006680;fill-rule:evenodd;stroke:#008080;stroke-width:1px;stroke-linecap:butt;stroke-linejoin:miter;stroke-opacity:1" />
      <path
         sodipodi:nodetypes="cccscsccccssccccccsccsscscccssscccscccccsccccccscccsccccccccscc"
         inkscape:connector-curvature="0"
         id="path6289"
         d="m 447.37458,496.0017 c 13.16544,-2.37542 9.20005,-5.75853 12.18065,-8.73305 l 0.35715,-4.28572 c -1.24929,-4.30933 -4.82435,-9.96563 -8.71491,-11.14829 -1.90494,-0.57907 -2.72862,-2.59415 -2.06195,-3.14394 1.49875,-3.46933 4.24961,1.78276 9.56406,6.16482 3.41382,2.81488 9.28918,4.3842 11.92708,5.98456 1.8998,6.08878 5.4025,6.56742 8.57143,8.21428 2.88164,0.62187 8.49882,5.24187 3.21429,-6.07143 -3.67238,-3.24793 -5.55613,-5.89966 -3.21429,-7.14285 0.29045,-0.75569 1.31277,-1.67633 2.66776,-2.60237 1.16528,-0.7964 1.06723,5.447 3.98008,-2.29971 0.63513,-1.68913 3.21667,-1.48741 4.42359,-1.88364 1.54762,3.15566 3.09524,2.178 4.64286,1.42857 -1.41524,-2.805 -0.10499,-3.72706 2.16306,-6.19721 -3.8057,-0.28434 -3.51538,-3.06829 -3.51538,-3.06829 -7.25694,4.61261 -6.89623,-2.63588 -14.00483,1.40836 -1.8849,-3.61023 -5.01412,-5.35399 -8.90888,-5.94942 -1.60937,-1.46759 -3.68421,-2.56206 -4.02436,-4.32969 -0.9525,-4.94984 -5.45567,-6.91077 -7.34309,-13.13069 -6.04588,-0.59029 -17.03999,-0.49806 -4.69913,-3.62445 -0.30648,-0.58798 -1.70348,-4.52868 -4.3806,-3.51347 -6.70244,2.54169 -11.76768,-5.95353 -11.76768,-5.95353 2.43968,-5.13581 -0.44207,-5.3498 -1.41666,-6.26596 -2.41343,-0.2858 -6.35389,-0.78166 -8.62569,-3.93611 -4.07337,-5.65599 -11.47305,-11.61578 -16.71213,-14.85549 -3.19162,2.99573 -4.27732,-0.23626 -5.72905,-1.12758 -5.28937,-8.06529 -6.08816,-13.06606 -10.5683,-11.74531 -0.52104,0.40717 -3.37935,2.28536 -1.99632,2.89336 7.36258,3.23666 5.31522,5.16899 -0.42267,1.82405 -1.97651,-1.15221 -1.49213,5.10301 -2.36067,4.88023 -1.79408,-0.46019 -4.78868,-7.8331 -5.68762,-8.02308 -3.69048,-6.34094 -7.38095,-6.15621 -11.07143,-8.92857 -0.75295,-3.45391 -2.964,-4.28043 -5.69408,-4.76864 0.4191,8.80879 -4.37879,-1.92451 -8.51151,-0.0208 -3.55228,1.63635 -4.56286,4.70222 -2.18714,5.89668 l 5.17076,1.41749 c 8.56277,-1.72518 14.36524,7.47888 20.3995,10.81074 -1.75468,0.1802 -4.02103,2.04158 -8.1061,9.87878 -2.0474,4.27654 4.38066,11.35994 8.04353,17.85714 2.65488,3.02694 2.91327,6.6646 5.24697,9.29648 4.30884,4.85939 3.45511,5.55137 6.51854,8.68645 -8.91223,0.83603 -8.7229,-2.94162 -11.59476,-5.12578 -3.08911,-11.83539 -5.01128,-10.4454 -7.14285,-11.42857 3.67915,4.89172 -1.96258,7.19103 -4.57769,11.45333 0.33117,2.79282 -0.6635,2.29871 -5.69865,0.0606 -2.95625,3.84312 -2.08696,10.94616 1.59477,11.17245 1.0973,1.12192 3.9419,2.32607 -1.75941,3.54299 -1.20331,0.25684 -1.17022,3.68524 1.06989,3.68524 4.56924,-1.02917 7.72513,-0.80128 11.83068,2.10245 1.47175,2.57442 2.55853,6.88121 5.29197,3.77802 5.66066,3.04209 9.11459,-2.55969 5.05696,-2.90283 -10.34893,-0.87519 -4.93639,-17.78408 -0.28376,-8.08322 2.14585,0.99952 4.06068,2.11453 1.60174,5.41644 1.1518,3.58255 1.79807,3.39452 4.55506,5.05085 7.18627,-3.6168 6.33422,-1.27928 4.60398,1.70875 2.61079,8.33846 8.34981,3.0166 12.44895,4.50866 12.83352,2.07311 16.00099,11.4549 14.0902,14.00027 -5.12143,-1.34505 -6.8978,1.99299 -8.75327,5.22028 -2.42272,7.75128 2.07923,4.68275 4.64286,4.64286 1.94999,-1.12224 3.71178,-1.68709 5.32595,-1.82446 6.70811,-0.57087 -5.61072,9.00809 12.62113,7.46249 1.53958,3.12534 4.2159,3.40882 7.76721,1.50483"
         style="fill:#006680;fill-rule:evenodd;stroke:#008080;stroke-width:1px;stroke-linecap:butt;stroke-linejoin:miter;stroke-opacity:1" />
      <g
         style="fill:#000000;fill-rule:nonzero;stroke:none;stroke-miterlimit:4"
         id="g1365"
         transform="matrix(0.47149505,0,0,0.47149501,415.39523,408.51333)">
        <g
           style="fill:#000000"
           id="g1367">
          <path
             style="fill:#000000"
             inkscape:connector-curvature="0"
             d="M 86.068,0 C 61.466,0 56.851,35.041 70.691,35.041 84.529,35.041 110.671,0 86.068,0 Z"
             id="path1369" />
          <path
             style="fill:#000000"
             inkscape:connector-curvature="0"
             d="M 45.217,30.699 C 52.586,31.149 60.671,2.577 46.821,4.374 32.976,6.171 37.845,30.249 45.217,30.699 Z"
             id="path1371" />
          <path
             style="fill:#000000"
             inkscape:connector-curvature="0"
             d="M 11.445,48.453 C 16.686,46.146 12.12,23.581 3.208,29.735 -5.7,35.89 6.204,50.759 11.445,48.453 Z"
             id="path1373" />
          <path
             style="fill:#000000"
             inkscape:connector-curvature="0"
             d="M 26.212,36.642 C 32.451,35.37 32.793,9.778 21.667,14.369 10.539,18.961 19.978,37.916 26.212,36.642 l 0,0 z"
             id="path1375" />
          <path
             style="fill:#000000"
             inkscape:connector-curvature="0"
             d="m 58.791,93.913 c 1.107,8.454 -6.202,12.629 -13.36,7.179 C 22.644,83.743 83.16,75.088 79.171,51.386 75.86,31.712 15.495,37.769 8.621,68.553 3.968,89.374 27.774,118.26 52.614,118.26 c 12.22,0 26.315,-11.034 28.952,-25.012 C 83.58,82.589 57.867,86.86 58.791,93.913 l 0,0 z"
             id="newshape" />
        </g>
      </g>
    </g>
    <g
       id="g6716"
       inkscape:export-xdpi="90"
       inkscape:export-ydpi="90"
       transform="matrix(3.8593816,0,0,3.8593816,-239.41543,-26.711584)">
      <path
         sodipodi:nodetypes="cccccccccccccccccc"
         inkscape:connector-curvature="0"
         id="path6341"
         d="m 88.172367,57.05031 c -1.47499,4.47834 0.84106,5.06328 -4.25562,12.12853 l 1.67456,20.8604 -2.34238,2.528 0.94798,17.73523 c 1.83744,-0.14775 2.41087,-0.47837 3.21915,-0.2507 l 9.48033,130.84147 c 33.131143,-3.14251 65.070513,-2.15824 98.730473,-2.12781 l 1.27668,-130.0093 1.70225,-1.27669 -0.21278,-20.00142 -2.55337,-2.12781 0.42555,-10.63906 C 185.34215,66.41129 175.5274,67.27017 165.62471,64.07209 l -0.21278,-11.06462 -5.10675,-1.0639 c 0.0587,-4.35496 -0.36749,-7.88933 -2.76615,-8.08569 -22.69666,-4.75211 -65.534873,4.47147 -69.366663,13.19243 z"
         style="fill:none;fill-rule:evenodd;stroke:#000000;stroke-width:1px;stroke-linecap:butt;stroke-linejoin:miter;stroke-opacity:1" />
      <g
         transform="translate(-32.900113,-299.09194)"
         id="g6533"
         style="stroke:#000000">
        <path
           style="fill:none;fill-rule:evenodd;stroke:#000000;stroke-width:1px;stroke-linecap:butt;stroke-linejoin:miter;stroke-opacity:1"
           d="m 229.01952,384.54656 c -46.93519,-17.27303 -106.02855,-1.23799 -110.46415,4.5092"
           id="path6343"
           inkscape:connector-curvature="0"
           sodipodi:nodetypes="cc" />
        <path
           sodipodi:nodetypes="cc"
           inkscape:connector-curvature="0"
           id="path6345"
           d="m 230.27279,407.02878 c -11.14516,-19.4377 -112.92894,-6.81574 -112.03141,1.85455"
           style="fill:none;fill-rule:evenodd;stroke:#000000;stroke-width:2.20000005;stroke-linecap:butt;stroke-linejoin:miter;stroke-miterlimit:4;stroke-dasharray:none;stroke-opacity:1" />
        <path
           style="fill:none;fill-rule:evenodd;stroke:#000000;stroke-width:1px;stroke-linecap:butt;stroke-linejoin:miter;stroke-opacity:1"
           d="m 128.09883,384.57026 0.11817,18.67123"
           id="path7147"
           inkscape:connector-curvature="0" />
        <path
           style="fill:none;fill-rule:evenodd;stroke:#000000;stroke-width:1px;stroke-linecap:butt;stroke-linejoin:miter;stroke-opacity:1"
           d="m 160.59622,378.30713 0.70904,19.38026"
           id="path7149"
           inkscape:connector-curvature="0" />
        <path
           style="fill:none;fill-rule:evenodd;stroke:#000000;stroke-width:1px;stroke-linecap:butt;stroke-linejoin:miter;stroke-opacity:1"
           d="m 186.12145,377.12541 1.29989,19.26209"
           id="path7151"
           inkscape:connector-curvature="0" />
        <path
           style="fill:none;fill-rule:evenodd;stroke:#000000;stroke-width:1px;stroke-linecap:butt;stroke-linejoin:miter;stroke-opacity:1"
           d="m 203.96547,378.54045 -0.35451,17.96522"
           id="path7153"
           inkscape:connector-curvature="0"
           sodipodi:nodetypes="cc" />
        <path
           style="fill:none;fill-rule:evenodd;stroke:#000000;stroke-width:1px;stroke-linecap:butt;stroke-linejoin:miter;stroke-opacity:1"
           d="m 215.66454,366.84441 -0.23635,13.58982 0,0"
           id="path7155"
           inkscape:connector-curvature="0"
           sodipodi:nodetypes="ccc" />
        <path
           style="fill:none;fill-rule:evenodd;stroke:#000000;stroke-width:1px;stroke-linecap:butt;stroke-linejoin:miter;stroke-opacity:1"
           d="m 198.52954,363.18106 c -20.78267,-1.59688 -41.81788,-2.26351 -59.7952,3.30883 l 0.11817,0"
           id="path7157"
           inkscape:connector-curvature="0"
           sodipodi:nodetypes="ccc" />
        <path
           style="fill:none;fill-rule:evenodd;stroke:#000000;stroke-width:1px;stroke-linecap:butt;stroke-linejoin:miter;stroke-opacity:1"
           d="m 138.97068,366.84441 1.2999,14.29886 0,0"
           id="path7159"
           inkscape:connector-curvature="0" />
        <path
           style="fill:none;fill-rule:evenodd;stroke:#000000;stroke-width:1px;stroke-linecap:butt;stroke-linejoin:miter;stroke-opacity:1"
           d="m 168.75012,361.88117 0.47269,15.12606"
           id="path7161"
           inkscape:connector-curvature="0"
           sodipodi:nodetypes="cc" />
        <path
           style="fill:none;fill-rule:evenodd;stroke:#000000;stroke-width:1px;stroke-linecap:butt;stroke-linejoin:miter;stroke-opacity:1"
           d="m 194.74803,362.59021 0.59086,14.88971"
           id="path7163"
           inkscape:connector-curvature="0"
           sodipodi:nodetypes="cc" />
        <path
           style="fill:none;fill-rule:evenodd;stroke:#000000;stroke-width:1px;stroke-linecap:butt;stroke-linejoin:miter;stroke-opacity:1"
           d="m 116.99062,367.78979 c 5.99431,-2.12681 9.90428,-4.70006 21.24538,-6.50704 l 0.73468,5.79801 0,0"
           id="path7165"
           inkscape:connector-curvature="0"
           sodipodi:nodetypes="cccc" />
        <path
           style="fill:none;fill-rule:evenodd;stroke:#000000;stroke-width:1px;stroke-linecap:butt;stroke-linejoin:miter;stroke-opacity:1"
           d="m 120.66664,360.50033 c 25.55858,-8.62113 50.91888,-11.60287 72.62058,-9.4819"
           id="path7167"
           inkscape:connector-curvature="0"
           sodipodi:nodetypes="cc" />
        <path
           style="fill:none;fill-rule:evenodd;stroke:#000000;stroke-width:1px;stroke-linecap:butt;stroke-linejoin:miter;stroke-opacity:1"
           d="m 133.55142,356.35977 c 0.003,3.17524 0.15424,3.55387 0.80307,5.34288"
           id="path7169"
           inkscape:connector-curvature="0"
           sodipodi:nodetypes="cc" />
        <path
           style="fill:none;fill-rule:evenodd;stroke:#000000;stroke-width:1px;stroke-linecap:butt;stroke-linejoin:miter;stroke-opacity:1"
           d="m 165.14115,350.74026 0.92479,11.27658"
           id="path7171"
           inkscape:connector-curvature="0"
           sodipodi:nodetypes="cc" />
        <path
           style="fill:none;fill-rule:evenodd;stroke:#000000;stroke-width:1px;stroke-linecap:butt;stroke-linejoin:miter;stroke-opacity:1"
           d="m 178.84946,341.79208 0.35842,8.07437"
           id="path7173"
           inkscape:connector-curvature="0"
           sodipodi:nodetypes="cc" />
        <path
           style="fill:none;fill-rule:evenodd;stroke:#000000;stroke-width:1px;stroke-linecap:butt;stroke-linejoin:miter;stroke-opacity:1"
           d="m 142.1463,346.10619 c -1.48785,2.26534 -0.91276,4.71822 -1.04997,7.10635 l -0.0253,0.4298"
           id="path7175"
           inkscape:connector-curvature="0"
           sodipodi:nodetypes="ccc" />
        <path
           style="fill:none;fill-rule:evenodd;stroke:#000000;stroke-width:1px;stroke-linecap:butt;stroke-linejoin:miter;stroke-opacity:1"
           d="m 164.2983,342.1034 c 0.79786,2.8687 0.61089,6.57606 0.7225,8.75851"
           id="path7177"
           inkscape:connector-curvature="0"
           sodipodi:nodetypes="cc" />
        <path
           style="fill:none;fill-rule:evenodd;stroke:#000000;stroke-width:1px;stroke-linecap:butt;stroke-linejoin:miter;stroke-opacity:1"
           d="m 130.58281,349.50891 c -1.89177,3.52145 -1.09166,5.17929 -0.59736,7.04885"
           id="path7179"
           inkscape:connector-curvature="0"
           sodipodi:nodetypes="cc" />
        <path
           style="fill:none;fill-rule:evenodd;stroke:#000000;stroke-width:1px;stroke-linecap:butt;stroke-linejoin:miter;stroke-opacity:1"
           d="m 121.80697,427.92684 c 35.9597,-5.25019 71.6393,-9.47217 107.599,-3.17626 l 0.13708,0.33697"
           id="path6346"
           inkscape:connector-curvature="0"
           sodipodi:nodetypes="ccc" />
        <path
           style="fill:none;fill-rule:evenodd;stroke:#000000;stroke-width:1px;stroke-linecap:butt;stroke-linejoin:miter;stroke-opacity:1"
           d="m 123.13805,446.96922 c 33.57487,-5.16473 68.73377,-7.03956 106.11897,-4.29052 l 0,0"
           id="path6348"
           inkscape:connector-curvature="0"
           sodipodi:nodetypes="ccc" />
        <path
           style="fill:none;fill-rule:evenodd;stroke:#000000;stroke-width:1px;stroke-linecap:butt;stroke-linejoin:miter;stroke-opacity:1"
           d="m 124.56822,469.13693 c 34.99161,-2.39001 69.98322,-5.15495 104.97483,-2.4313"
           id="path6350"
           inkscape:connector-curvature="0"
           sodipodi:nodetypes="cc" />
        <path
           style="fill:none;fill-rule:evenodd;stroke:#000000;stroke-width:1px;stroke-linecap:butt;stroke-linejoin:miter;stroke-opacity:1"
           d="m 228.82796,488.15826 c -13.53627,1.76181 -57.94407,1.06203 -72.42147,1.22921 l -1.46227,3.32565 c 0,0 -21.08843,0.51034 -28.65979,0.26345"
           id="path6352"
           inkscape:connector-curvature="0"
           sodipodi:nodetypes="cccc" />
        <path
           style="fill:none;fill-rule:evenodd;stroke:#000000;stroke-width:1px;stroke-linecap:butt;stroke-linejoin:miter;stroke-opacity:1"
           d="m 128.85875,517.90589 59.60895,-3.93921 m 29.22264,-2.25457 11.13762,0.044"
           id="path6354"
           inkscape:connector-curvature="0"
           sodipodi:nodetypes="cccc" />
        <path
           style="fill:none;fill-rule:evenodd;stroke:#000000;stroke-width:1px;stroke-linecap:butt;stroke-linejoin:miter;stroke-opacity:1"
           d="m 187.34381,503.76544 30.70313,-0.99865"
           id="path6356"
           inkscape:connector-curvature="0"
           sodipodi:nodetypes="cc" />
        <path
           style="fill:none;fill-rule:evenodd;stroke:#000000;stroke-width:1px;stroke-linecap:butt;stroke-linejoin:miter;stroke-opacity:1"
           d="m 130.00289,403.22765 2.30969,22.54703 0.0275,0.68741"
           id="path6358"
           inkscape:connector-curvature="0"
           sodipodi:nodetypes="ccc" />
        <path
           style="fill:none;fill-rule:evenodd;stroke:#000000;stroke-width:1px;stroke-linecap:butt;stroke-linejoin:miter;stroke-opacity:1"
           d="m 149.6903,400.588 1.53979,23.31693"
           id="path6360"
           inkscape:connector-curvature="0" />
        <path
           style="fill:none;fill-rule:evenodd;stroke:#000000;stroke-width:1px;stroke-linecap:butt;stroke-linejoin:miter;stroke-opacity:1"
           d="m 172.34731,397.83836 2.74964,23.75687 0,0"
           id="path6362"
           inkscape:connector-curvature="0" />
        <path
           style="fill:none;fill-rule:evenodd;stroke:#000000;stroke-width:1px;stroke-linecap:butt;stroke-linejoin:miter;stroke-opacity:1"
           d="m 207.65267,397.61839 1.42981,24.52677"
           id="path6364"
           inkscape:connector-curvature="0" />
        <path
           style="fill:none;fill-rule:evenodd;stroke:#000000;stroke-width:1px;stroke-linecap:butt;stroke-linejoin:miter;stroke-opacity:1"
           d="m 225.03038,402.45776 -0.65991,21.66714"
           id="path6366"
           inkscape:connector-curvature="0"
           sodipodi:nodetypes="cc" />
        <path
           style="fill:none;fill-rule:evenodd;stroke:#000000;stroke-width:1px;stroke-linecap:butt;stroke-linejoin:miter;stroke-opacity:1"
           d="m 155.70935,423.331 1.58446,20.02183 -0.28808,-0.57617"
           id="path6368"
           inkscape:connector-curvature="0" />
        <path
           style="fill:none;fill-rule:evenodd;stroke:#000000;stroke-width:1px;stroke-linecap:butt;stroke-linejoin:miter;stroke-opacity:1"
           d="m 181.12839,422.00841 -0.0779,19.45515"
           id="path6370"
           inkscape:connector-curvature="0"
           sodipodi:nodetypes="cc" />
        <path
           style="fill:none;fill-rule:evenodd;stroke:#000000;stroke-width:1px;stroke-linecap:butt;stroke-linejoin:miter;stroke-opacity:1"
           d="m 202.39492,422.16992 1.06072,19.16632"
           id="path6372"
           inkscape:connector-curvature="0"
           sodipodi:nodetypes="cc" />
        <path
           style="fill:none;fill-rule:evenodd;stroke:#000000;stroke-width:1px;stroke-linecap:butt;stroke-linejoin:miter;stroke-opacity:1"
           d="m 223.12098,424.05121 0.28809,18.29332"
           id="path6374"
           inkscape:connector-curvature="0" />
        <path
           style="fill:none;fill-rule:evenodd;stroke:#000000;stroke-width:1px;stroke-linecap:butt;stroke-linejoin:miter;stroke-opacity:1"
           d="m 127.52001,446.54031 1.42594,21.79655 0,0"
           id="path6376"
           inkscape:connector-curvature="0" />
        <path
           style="fill:none;fill-rule:evenodd;stroke:#000000;stroke-width:1px;stroke-linecap:butt;stroke-linejoin:miter;stroke-opacity:1"
           d="m 160.11298,442.8736 1.01853,23.62991"
           id="path6378"
           inkscape:connector-curvature="0" />
        <path
           style="fill:none;fill-rule:evenodd;stroke:#000000;stroke-width:1px;stroke-linecap:butt;stroke-linejoin:miter;stroke-opacity:1"
           d="m 179.66877,441.65137 0.40741,24.24102"
           id="path6380"
           inkscape:connector-curvature="0" />
        <path
           style="fill:none;fill-rule:evenodd;stroke:#000000;stroke-width:1px;stroke-linecap:butt;stroke-linejoin:miter;stroke-opacity:1"
           d="m 208.18762,441.65137 0.81482,23.83361"
           id="path6382"
           inkscape:connector-curvature="0" />
        <path
           style="fill:none;fill-rule:evenodd;stroke:#000000;stroke-width:1px;stroke-linecap:butt;stroke-linejoin:miter;stroke-opacity:1"
           d="m 154.2055,467.31833 2.31716,22.12757"
           id="path6384"
           inkscape:connector-curvature="0"
           sodipodi:nodetypes="cc" />
        <path
           style="fill:none;fill-rule:evenodd;stroke:#000000;stroke-width:1px;stroke-linecap:butt;stroke-linejoin:miter;stroke-opacity:1"
           d="m 204.28119,465.24632 -0.3714,24.07227"
           id="path6386"
           inkscape:connector-curvature="0"
           sodipodi:nodetypes="cc" />
        <path
           style="fill:none;fill-rule:evenodd;stroke:#000000;stroke-width:1px;stroke-linecap:butt;stroke-linejoin:miter;stroke-opacity:1"
           d="m 187.00218,489.62415 c 0.24929,7.36718 0.008,18.67323 0.96645,24.7254"
           id="path6388"
           inkscape:connector-curvature="0"
           sodipodi:nodetypes="cc" />
        <path
           style="fill:none;fill-rule:evenodd;stroke:#000000;stroke-width:1px;stroke-linecap:butt;stroke-linejoin:miter;stroke-opacity:1"
           d="m 217.65308,489.16303 c 0.12918,6.84581 0.30064,17.82212 0.41428,23.04498"
           id="path6390"
           inkscape:connector-curvature="0"
           sodipodi:nodetypes="cc" />
      </g>
      <path
         sodipodi:nodetypes="ccc"
         inkscape:connector-curvature="0"
         id="path6392"
         d="m 152.47703,215.08051 -0.0596,23.12743 0,0"
         style="fill:none;fill-rule:evenodd;stroke:#000000;stroke-width:1px;stroke-linecap:butt;stroke-linejoin:miter;stroke-opacity:1" />
      <path
         sodipodi:nodetypes="ccccc"
         inkscape:connector-curvature="0"
         id="rect6394"
         d="m 167.85165,227.77545 8.53551,-0.93034 0.31011,11.97629 -9.15573,-0.39871 z"
         style="opacity:1;fill:#000000;fill-opacity:1;stroke:#000000" />
      <g
         style="fill:#ffffff;stroke:#000000"
         transform="matrix(0.67351211,0,0,0.76508271,26.314452,-158.27043)"
         id="g6437">
        <path
           sodipodi:nodetypes="cscsccscsccccscc"
           inkscape:connector-curvature="0"
           id="path6410"
           d="m 303.92519,518.97852 c -2.19371,-1.43883 -11.63483,7.42386 2.41524,6.57645 6.18068,-0.37279 4.66422,1.22315 1.97658,6.33849 4.2598,2.55588 -0.33054,7.84636 -9.82588,4.13414 -8.55116,-3.34309 -7.97963,-1.01145 -12.24361,-8.08397 -1.16824,-1.8466 -2.98861,-3.69027 5.6891,-9.47525 0.26145,-4.91565 2.69996,-9.98885 -0.78357,-11.55142 -4.34629,-1.94957 -5.58872,-6.85176 2.63858,-3.7904 5.46476,-3.54797 7.38308,-13.67706 11.9176,-0.41464 1.40698,4.11509 7.60069,-0.92718 5.03448,-4.56779 1.07469,2.82962 2.73935,-8.09779 7.38674,-2.96733 1.56378,1.9484 7.16468,4.70391 15.90991,1.01016 6.99406,5.35668 3.02307,6.84503 0.1894,8.27062 2.76151,8.67548 -5.16679,3.9133 -8.8468,2.77053 -5.31381,-1.65012 -6.57164,6.64932 1.04084,3.14358 6.05031,2.90258 -8.84581,11.77236 -22.49861,8.60683 z"
           style="fill:#ffffff;fill-rule:evenodd;stroke:#000000;stroke-width:1px;stroke-linecap:butt;stroke-linejoin:miter;stroke-opacity:1" />
        <path
           sodipodi:nodetypes="cccscsccccssccccccsccsscscccssscccscccccsccccccscccsccccccccscc"
           inkscape:connector-curvature="0"
           id="path6412"
           d="m 272.82709,502.64662 c 13.16544,-2.37542 9.20005,-5.75853 12.18065,-8.73305 l 0.35715,-4.28572 c -1.24929,-4.30933 -4.82435,-9.96563 -8.71491,-11.14829 -1.90494,-0.57907 -2.72862,-2.59415 -2.06195,-3.14394 1.49875,-3.46933 4.24961,1.78276 9.56406,6.16482 3.41382,2.81488 9.28918,4.3842 11.92708,5.98456 1.8998,6.08878 5.4025,6.56742 8.57143,8.21428 2.88164,0.62187 8.49882,5.24187 3.21429,-6.07143 -3.67238,-3.24793 -5.55613,-5.89966 -3.21429,-7.14285 0.29045,-0.75569 1.31277,-1.67633 2.66776,-2.60237 1.16528,-0.7964 1.06723,5.447 3.98008,-2.29971 0.63513,-1.68913 3.21667,-1.48741 4.42359,-1.88364 1.54762,3.15566 3.09524,2.178 4.64286,1.42857 -1.41524,-2.805 -0.10499,-3.72706 2.16306,-6.19721 -3.8057,-0.28434 -3.51538,-3.06829 -3.51538,-3.06829 -7.25694,4.61261 -6.89623,-2.63588 -14.00483,1.40836 -1.8849,-3.61023 -5.01412,-5.35399 -8.90888,-5.94942 -1.60937,-1.46759 -3.68421,-2.56206 -4.02436,-4.32969 -0.9525,-4.94984 -5.45567,-6.91077 -7.34309,-13.13069 -6.04588,-0.59029 -17.03999,-0.49806 -4.69913,-3.62445 -0.30648,-0.58798 -1.70348,-4.52868 -4.3806,-3.51347 -6.70244,2.54169 -11.76768,-5.95353 -11.76768,-5.95353 2.43968,-5.13581 -0.44207,-5.3498 -1.41666,-6.26596 -2.41343,-0.2858 -6.35389,-0.78166 -8.62569,-3.93611 -4.07337,-5.65599 -11.47305,-11.61578 -16.71213,-14.85549 -3.19162,2.99573 -4.27732,-0.23626 -5.72905,-1.12758 -5.28937,-8.06529 -6.08816,-13.06606 -10.5683,-11.74531 -0.52104,0.40717 -3.37935,2.28536 -1.99632,2.89336 7.36258,3.23666 5.31522,5.16899 -0.42267,1.82405 -1.97651,-1.15221 -1.49213,5.10301 -2.36067,4.88023 -1.79408,-0.46019 -4.78868,-7.8331 -5.68762,-8.02308 -3.69048,-6.34094 -7.38095,-6.15621 -11.07143,-8.92857 -0.75295,-3.45391 -2.964,-4.28043 -5.69408,-4.76864 0.4191,8.80879 -4.37879,-1.92451 -8.51151,-0.0208 -3.55228,1.63635 -4.56286,4.70222 -2.18714,5.89668 l 5.17076,1.41749 c 8.56277,-1.72518 14.36524,7.47888 20.3995,10.81074 -1.75468,0.1802 -4.02103,2.04158 -8.1061,9.87878 -2.0474,4.27654 4.38066,11.35994 8.04353,17.85714 2.65488,3.02694 2.91327,6.6646 5.24697,9.29648 4.30884,4.85939 3.45511,5.55137 6.51854,8.68645 -8.91223,0.83603 -8.7229,-2.94162 -11.59476,-5.12578 -3.08911,-11.83539 -5.01128,-10.4454 -7.14285,-11.42857 3.67915,4.89172 -1.96258,7.19103 -4.57769,11.45333 0.33117,2.79282 -0.6635,2.29871 -5.69865,0.0606 -2.95625,3.84312 -2.08696,10.94616 1.59477,11.17245 1.0973,1.12192 3.9419,2.32607 -1.75941,3.54299 -1.20331,0.25684 -1.17022,3.68524 1.06989,3.68524 4.56924,-1.02917 7.72513,-0.80128 11.83068,2.10245 1.47175,2.57442 2.55853,6.88121 5.29197,3.77802 5.66066,3.04209 9.11459,-2.55969 5.05696,-2.90283 -10.34893,-0.87519 -4.93639,-17.78408 -0.28376,-8.08322 2.14585,0.99952 4.06068,2.11453 1.60174,5.41644 1.1518,3.58255 1.79807,3.39452 4.55506,5.05085 7.18627,-3.6168 6.33422,-1.27928 4.60398,1.70875 2.61079,8.33846 8.34981,3.0166 12.44895,4.50866 12.83352,2.07311 16.00099,11.4549 14.0902,14.00027 -5.12143,-1.34505 -6.8978,1.99299 -8.75327,5.22028 -2.42272,7.75128 2.07923,4.68275 4.64286,4.64286 1.94999,-1.12224 3.71178,-1.68709 5.32595,-1.82446 6.70811,-0.57087 -5.61072,9.00809 12.62113,7.46249 1.53958,3.12534 4.2159,3.40882 7.76721,1.50483"
           style="fill:#ffffff;fill-rule:evenodd;stroke:#000000;stroke-width:1px;stroke-linecap:butt;stroke-linejoin:miter;stroke-opacity:1" />
      </g>
      <g
         transform="matrix(0.83965547,0,0,0.83965541,105.49084,88.525146)"
         id="g6414"
         style="fill:#000000;fill-rule:nonzero;stroke:none;stroke-miterlimit:4">
        <g
           id="g6416"
           style="fill:#000000">
          <path
             id="path6418"
             d="M 86.068,0 C 61.466,0 56.851,35.041 70.691,35.041 84.529,35.041 110.671,0 86.068,0 Z"
             inkscape:connector-curvature="0"
             style="fill:#000000" />
          <path
             id="path6420"
             d="M 45.217,30.699 C 52.586,31.149 60.671,2.577 46.821,4.374 32.976,6.171 37.845,30.249 45.217,30.699 Z"
             inkscape:connector-curvature="0"
             style="fill:#000000" />
          <path
             id="path6422"
             d="M 11.445,48.453 C 16.686,46.146 12.12,23.581 3.208,29.735 -5.7,35.89 6.204,50.759 11.445,48.453 Z"
             inkscape:connector-curvature="0"
             style="fill:#000000" />
          <path
             id="path6424"
             d="M 26.212,36.642 C 32.451,35.37 32.793,9.778 21.667,14.369 10.539,18.961 19.978,37.916 26.212,36.642 l 0,0 z"
             inkscape:connector-curvature="0"
             style="fill:#000000" />
          <path
             id="path6426"
             d="m 58.791,93.913 c 1.107,8.454 -6.202,12.629 -13.36,7.179 C 22.644,83.743 83.16,75.088 79.171,51.386 75.86,31.712 15.495,37.769 8.621,68.553 3.968,89.374 27.774,118.26 52.614,118.26 c 12.22,0 26.315,-11.034 28.952,-25.012 C 83.58,82.589 57.867,86.86 58.791,93.913 l 0,0 z"
             inkscape:connector-curvature="0"
             style="fill:#000000" />
        </g>
      </g>
    </g>
  </g>
</svg>
