<?xml version="1.0" encoding="UTF-8" standalone="no"?>
<!-- Created with Inkscape (http://www.inkscape.org/) -->

<svg
   xmlns:dc="http://purl.org/dc/elements/1.1/"
   xmlns:cc="http://creativecommons.org/ns#"
   xmlns:rdf="http://www.w3.org/1999/02/22-rdf-syntax-ns#"
   xmlns:svg="http://www.w3.org/2000/svg"
   xmlns="http://www.w3.org/2000/svg"
   xmlns:sodipodi="http://sodipodi.sourceforge.net/DTD/sodipodi-0.dtd"
   xmlns:inkscape="http://www.inkscape.org/namespaces/inkscape"
   width="210mm"
   height="297mm"
   viewBox="0 0 744.09448819 1052.3622047"
   id="svg2"
   version="1.1"
   inkscape:version="0.91 r13725"
   sodipodi:docname="new_Chullpa.svg">
  <defs
     id="defs4">
    <filter
       inkscape:label="Evanescent"
       inkscape:menu="Blurs"
       inkscape:menu-tooltip="Blur the contents of objects, preserving the outline and adding progressive transparency at edges"
       style="color-interpolation-filters:sRGB;"
       id="filter7081">
      <feGaussianBlur
         id="feGaussianBlur7089"
         result="result6"
         stdDeviation="29.699999999999999"
         in="SourceGraphic" />
      <feColorMatrix
         id="feColorMatrix7091"
         values="1 0 0 0 0 0 1 0 0 0 0 0 1 0 0 0 0 0 1 0 "
         result="result7"
         in="SourceGraphic" />
      <feComposite
         id="feComposite7093"
         in2="result7"
         operator="in"
         in="result6"
         result="result8" />
      <feBlend
         mode="normal"
         id="feBlend7095"
         in2="result8" />
    </filter>
  </defs>
  <sodipodi:namedview
     id="base"
     pagecolor="#ffffff"
     bordercolor="#666666"
     borderopacity="1.0"
     inkscape:pageopacity="0.0"
     inkscape:pageshadow="2"
     inkscape:zoom="0.53958333"
     inkscape:cx="65.786055"
     inkscape:cy="524.74675"
     inkscape:document-units="px"
     inkscape:current-layer="layer1"
     showgrid="false"
     inkscape:window-width="1366"
     inkscape:window-height="724"
     inkscape:window-x="0"
     inkscape:window-y="20"
     inkscape:window-maximized="1" />
  <metadata
     id="metadata7">
    <rdf:RDF>
      <cc:Work
         rdf:about="">
        <dc:format>image/svg+xml</dc:format>
        <dc:type
           rdf:resource="http://purl.org/dc/dcmitype/StillImage" />
        <dc:title></dc:title>
      </cc:Work>
    </rdf:RDF>
  </metadata>
  <g
     inkscape:label="Capa 1"
     inkscape:groupmode="layer"
     id="layer1">
    <rect
       style="opacity:1;fill:#ffffff;fill-opacity:1;stroke:none"
       id="rect7117"
       width="615.28955"
       height="841.38995"
       x="68.571426"
       y="90.508926"
       inkscape:export-xdpi="90"
       inkscape:export-ydpi="90" />
    <g
       id="g7106">
      <path
         inkscape:export-ydpi="90"
         inkscape:export-xdpi="90"
         inkscape:connector-curvature="0"
         id="path6733"
         d="m 170.02122,186.10346 c -5.6925,17.28364 3.246,19.54114 -16.4241,46.80865 l 6.4628,80.50825 -9.0401,9.75651 3.6586,68.44702 c 7.0914,-0.57022 9.3045,-1.84621 12.4239,-0.96754 l 36.5882,504.96703 c 127.8657,-12.1282 251.1319,-8.3295 381.03852,-8.2121 l 4.9272,-501.7553 6.5697,-4.92724 -0.8212,-77.19311 -9.8545,-8.21203 1.6424,-41.06019 c -42.1562,-32.03234 -80.03502,-28.7176 -118.25332,-41.06021 l -0.8212,-42.7026 -19.7089,-4.10599 c 0.2266,-16.80746 -1.4183,-30.44794 -10.6756,-31.20577 -87.5951,-18.34021 -252.924,17.25711 -267.7124,50.91462 z"
         style="opacity:1;fill:#a05a2c;fill-opacity:1;stroke:#554400;stroke-width:3.85938168;filter:url(#filter7081)" />
      <g
         inkscape:export-ydpi="90"
         inkscape:export-xdpi="90"
         style="opacity:0.778"
         transform="translate(-506.95168,171.19721)"
         id="g6577">
        <g
           style="fill:#000000;fill-rule:nonzero;stroke:none;stroke-miterlimit:4"
           id="g6414"
           transform="matrix(3.2405509,0,0,3.2405506,745.89952,205.79366)">
          <g
             style="fill:#000000"
             id="g6416">
            <path
               style="fill:#000000"
               inkscape:connector-curvature="0"
               d="M 86.068,0 C 61.466,0 56.851,35.041 70.691,35.041 84.529,35.041 110.671,0 86.068,0 Z"
               id="path6418" />
            <path
               style="fill:#000000"
               inkscape:connector-curvature="0"
               d="M 45.217,30.699 C 52.586,31.149 60.671,2.577 46.821,4.374 32.976,6.171 37.845,30.249 45.217,30.699 Z"
               id="path6420" />
            <path
               style="fill:#000000"
               inkscape:connector-curvature="0"
               d="M 11.445,48.453 C 16.686,46.146 12.12,23.581 3.208,29.735 -5.7,35.89 6.204,50.759 11.445,48.453 Z"
               id="path6422" />
            <path
               style="fill:#000000"
               inkscape:connector-curvature="0"
               d="M 26.212,36.642 C 32.451,35.37 32.793,9.778 21.667,14.369 10.539,18.961 19.978,37.916 26.212,36.642 l 0,0 z"
               id="path6424" />
            <path
               style="fill:#000000"
               inkscape:connector-curvature="0"
               d="m 58.791,93.913 c 1.107,8.454 -6.202,12.629 -13.36,7.179 C 22.644,83.743 83.16,75.088 79.171,51.386 75.86,31.712 15.495,37.769 8.621,68.553 3.968,89.374 27.774,118.26 52.614,118.26 c 12.22,0 26.315,-11.034 28.952,-25.012 C 83.58,82.589 57.867,86.86 58.791,93.913 l 0,0 z"
               id="path6426" />
          </g>
        </g>
      </g>
    </g>
    <g
       id="g7100"
       inkscape:export-xdpi="90"
       inkscape:export-ydpi="90">
      <g
         style="filter:url(#filter7081)"
         inkscape:export-ydpi="90"
         inkscape:export-xdpi="90"
         transform="translate(-8.5848954,104.466)"
         id="g6778">
        <path
           id="rect6394"
           style="opacity:1;fill:none;fill-opacity:1;stroke:#28170b;stroke-width:3.85938168"
           d="m 485.34274,741.27997 32.94179,-3.5905 1.04496,45.0819 -35.18358,-0.3998 z m -59.33653,-48.99455 -0.23002,89.25745 0,0 M 550.57137,595.76449 c 0.49856,26.42059 1.16029,68.78236 1.59887,88.93937 M 432.27785,597.54413 c 0.96211,28.43275 0.0309,72.06712 3.7299,95.42475 m 62.9564,-189.5081 -1.43338,92.90407 m -191.82782,-84.9074 8.94281,85.39874 m 199.39479,-184.45733 3.1447,91.983 m -113.20982,-91.983 1.57235,93.55535 m -77.04561,-88.8383 3.9309,91.19684 m -129.71961,-77.0456 5.50325,84.1212 0,0 m 363.45737,-170.91522 1.11185,70.6009 m -81.10162,-77.86152 4.09372,73.97014 m -86.16937,-74.59347 -0.30065,75.08485 m -97.80113,-69.98047 6.11504,75.99429 m 261.42127,-152.26303 -2.54685,79.33271 m -64.52037,-97.37088 5.51819,89.7303 m -141.77504,-93.17041 10.61191,91.04802 0,0 m -98.05396,-81.07491 5.94264,89.98893 m -81.74135,-76.88131 8.73146,84.09739 0.10613,2.65297 M 214.53398,56.785934 c -7.30106,13.59062 -2.56773,23.57886 -0.66003,30.7942 m -36.04396,-5.19357 C 172.13743,99.6702 181.07596,101.9277 161.40592,129.1952 l 6.46277,80.50825 -9.04014,9.75651 3.65861,68.44702 c 7.09139,-0.57022 9.30447,-1.84621 12.42393,-0.96754 l 36.58822,504.96703 c 127.86572,-12.1282 251.13193,-8.3295 381.03856,-8.2121 l 4.9272,-501.7553 6.56963,-4.92724 -0.8212,-77.19311 -9.85443,-8.21203 1.64236,-41.06019 c -42.15618,-32.03233 -80.03504,-28.71759 -118.2533,-41.0602 l -0.8212,-42.702596 -19.7089,-4.10599 c 0.22655,-16.80746 -1.41828,-30.44794 -10.67563,-31.20577 -87.59506,-18.340209 -252.92407,17.25711 -267.71241,50.91462 z m 166.82493,-54.18132 c 3.07925,11.07141 2.35766,25.37953 2.7884,33.80243 M 259.1619,43.653544 c -5.18759,11.19151 -5.69591,22.71875 -1.90611,33.57237 m 143.55761,-50.22217 1.43615,32.00824 M 176.26369,99.20603 C 274.90401,65.933794 372.77908,54.426114 456.53422,62.611754 m -108.62642,-1.07357 3.56912,43.520636 M 225.99098,83.226024 c 0.0116,12.254464 0.59527,13.715744 3.09935,20.620216 m -67.0138,23.4926 c 23.13433,-8.20818 38.2244,-18.13933 81.99403,-25.11315 l 2.83541,22.37673 0,0 m 229.86036,-15.05043 c -80.20825,-6.16297 -161.39115,-8.73575 -230.77249,12.77004 l 0.45607,0 m 215.72213,-15.05036 2.28036,57.46508 m -102.61621,-60.20153 1.82429,58.37724 m -116.75451,-39.22221 5.01681,55.18476 0,0 m 290.97406,-55.18476 -0.91217,52.44831 0,0 m -44.23901,-7.30882 -1.36819,69.33464 m -67.49869,-74.79582 5.01677,71.23702 m -103.52837,-66.67631 3.01023,72.60566 m -128.43006,-48.43385 0.8211,69.3217 M 594.4388,192.00961 C 413.29799,125.34639 185.23417,187.23173 168.11549,209.41233 m 274.56984,25.58978 c -25.18313,-0.22114 -51.42816,0.68511 -77.31055,2.4375 -51.76476,3.50477 -102.02661,10.39845 -139.33007,18.5625 -18.65174,4.08202 -34.03891,8.45727 -44.95899,13.02344 -5.46004,2.28308 -9.80544,4.57936 -13.03516,7.18554 -3.22971,2.60619 -5.7999,5.99893 -5.36914,10.16016 l 8.44532,-0.87305 c -0.002,-0.0215 0.0909,-0.93269 2.25586,-2.67969 2.16496,-1.74699 5.94481,-3.85417 10.97851,-5.95898 10.06741,-4.20962 25.1377,-8.54425 43.49805,-12.5625 36.72069,-8.03651 86.70336,-14.90574 138.08789,-18.38477 51.38453,-3.47902 104.2206,-3.56336 146.59961,1.83985 21.1895,2.7016 39.7651,6.78838 54.11914,12.37695 14.35404,5.58858 25.84018,12.13227 30.47407,20.214 l 5.8189,-3.67689 c -6.11947,-10.67264 -17.86495,-18.47368 -33.21289,-24.44922 -15.34795,-5.97554 -34.49276,-10.12867 -56.125,-12.88672 -21.63224,-2.75805 -45.75242,-4.10698 -70.93555,-4.32812 z M 180.66466,359.43066 c 138.78221,-20.26248 276.4834,-36.55672 415.2656,-12.2584 l 0.52904,1.3005 M 185.80181,432.92247 C 315.38004,412.98981 451.07165,405.75413 595.3554,416.36372 l 0,0 m -1.6559,175.52298 c -52.24163,6.79949 -223.62827,4.09878 -279.50209,4.74399 l -5.64345,12.83495 c 0,0 -81.3883,1.9696 -110.60907,1.01675 m -6.62351,-92.00626 c 135.04598,-9.22397 270.09195,-19.89492 405.13792,-9.38332 m -162.86297,143.02795 118.4951,-3.85417 m -344.21126,58.42756 230.05368,-15.20291 m 112.78132,-8.70125 42.98433,0.16981"
           inkscape:connector-curvature="0"
           sodipodi:nodetypes="ccccccccccccccccccccccccccccccccccccccccccccccccccccccccccccccccccccccccccccccccccccccccccccccccccccccccsssssccssssssccssscccccccccccccccccc" />
        <path
           style="opacity:1;fill:#28170b;fill-opacity:1;stroke:none"
           d="m 161.88791,285.00875 c 18.77812,-50.63726 391.7861,-77.28538 440.26794,-10.44479 l -2.98423,4.80176 c -43.263,-58.44782 -374.76055,-37.76437 -428.8284,7.46057 z"
           id="rect6775"
           inkscape:connector-curvature="0"
           sodipodi:nodetypes="ccccc" />
      </g>
      <path
         sodipodi:nodetypes="ccccc"
         inkscape:connector-curvature="0"
         id="rect7097"
         d="m 479.13994,847.54692 28.33886,-2.94855 1.63809,39.91468 -31.61504,0 z"
         style="opacity:0.778;fill:#502d16;fill-opacity:1;stroke:none" />
    </g>
  </g>
</svg>
